<?xml version="1.0" encoding="UTF-8"?>
<svg width="400" height="400" viewBox="0 0 400 400" fill="none" xmlns="http://www.w3.org/2000/svg">
  <rect width="400" height="400" fill="#F3F4F6"/>
  <path d="M100 200C100 144.772 144.772 100 200 100C255.228 100 300 144.772 300 200C300 255.228 255.228 300 200 300C144.772 300 100 255.228 100 200Z" fill="#E5E7EB"/>
  <path d="M200 150C171.046 150 147.5 173.046 147.5 202C147.5 230.954 171.046 254.5 200 254.5C228.954 254.5 252.5 230.954 252.5 202C252.5 173.046 228.954 150 200 150Z" fill="#D1D5DB"/>
  <path d="M200 170C211.046 170 220 178.954 220 190C220 201.046 211.046 210 200 210C188.954 210 180 201.046 180 190C180 178.954 188.954 170 200 170Z" fill="#9CA3AF"/>
  <path d="M200 240C200 240 220 220 235 220C250 220 255 230 255 240H200Z" fill="#9CA3AF"/>
</svg>
